<svg id="_2490755a-457e-4afb-a65a-0ea5e4d54fde" data-name="2490755a-457e-4afb-a65a-0ea5e4d54fde" xmlns="http://www.w3.org/2000/svg" viewBox="0 0 945.48 723.06"><defs><style>.cls-1,.cls-4{fill:#fff;stroke-miterlimit:10;stroke-width:1.5px;}.cls-1{stroke:#2e626a;}.cls-2{fill:#2e626a;}.cls-3{fill:#fe5e55;}.cls-4{stroke:#a796d4;}</style></defs><path class="cls-1" d="M690.93,577.08H211.64a13.26,13.26,0,0,1-13.25-13.27V169.71a42.06,42.06,0,0,1,42.06-42.06H662.12a42.06,42.06,0,0,1,42.06,42.06v394.1A13.26,13.26,0,0,1,690.93,577.08Z"/><path class="cls-2" d="M704.18,169.72v64.33H198.38V169.72a42.07,42.07,0,0,1,42.08-42.07H662.13A42.05,42.05,0,0,1,704.18,169.72Z"/><path class="cls-2" d="M283.57,283.05H254.79a8.29,8.29,0,0,1,0-16.57h28.78a8.29,8.29,0,0,1,0,16.57Z"/><path class="cls-2" d="M372,283.05H343.24a8.29,8.29,0,0,1,0-16.57H372a8.29,8.29,0,1,1,0,16.57Z"/><path class="cls-2" d="M460.47,283.05H431.69a8.29,8.29,0,0,1,0-16.57h28.78a8.29,8.29,0,0,1,0,16.57Z"/><path class="cls-2" d="M548.93,283.05H520.15a8.29,8.29,0,0,1,0-16.57h28.78a8.29,8.29,0,0,1,0,16.57Z"/><path class="cls-2" d="M637.38,283.05H608.6a8.29,8.29,0,0,1,0-16.57h28.78a8.29,8.29,0,0,1,0,16.57Z"/><path class="cls-2" d="M283.57,324.68H254.79a8.28,8.28,0,1,1,0-16.56h28.78a8.28,8.28,0,1,1,0,16.56Z"/><path class="cls-2" d="M372,324.68H343.24a8.28,8.28,0,1,1,0-16.56H372a8.28,8.28,0,1,1,0,16.56Z"/><path class="cls-2" d="M460.47,324.68H431.69a8.28,8.28,0,0,1,0-16.56h28.78a8.28,8.28,0,0,1,0,16.56Z"/><path class="cls-2" d="M548.93,324.68H520.15a8.28,8.28,0,1,1,0-16.56h28.78a8.28,8.28,0,1,1,0,16.56Z"/><path class="cls-2" d="M637.38,324.68H608.6a8.28,8.28,0,1,1,0-16.56h28.78a8.28,8.28,0,0,1,0,16.56Z"/><path class="cls-3" d="M409.08,531.08a24.22,24.22,0,0,1-17.2-7.12L349.3,481.38A24.32,24.32,0,0,1,383.7,447l25.38,25.37L508.47,373a24.33,24.33,0,1,1,34.4,34.41L426.28,524A24.25,24.25,0,0,1,409.08,531.08Z"/><path class="cls-2" d="M288.71,161.17H273.33a11.83,11.83,0,0,1-11.83-11.83V109.11a11.83,11.83,0,0,1,11.83-11.83h15.38a11.83,11.83,0,0,1,11.84,11.83v40.23A11.83,11.83,0,0,1,288.71,161.17Z"/><path class="cls-2" d="M399.24,161.17H383.85A11.83,11.83,0,0,1,372,149.34V109.11a11.83,11.83,0,0,1,11.83-11.83h15.39a11.83,11.83,0,0,1,11.83,11.83v40.23A11.83,11.83,0,0,1,399.24,161.17Z"/><path class="cls-2" d="M509.77,161.17H494.38a11.83,11.83,0,0,1-11.83-11.83V109.11a11.83,11.83,0,0,1,11.83-11.83h15.39a11.83,11.83,0,0,1,11.83,11.83v40.23A11.83,11.83,0,0,1,509.77,161.17Z"/><path class="cls-2" d="M620.29,161.17H604.91a11.83,11.83,0,0,1-11.83-11.83V109.11a11.83,11.83,0,0,1,11.83-11.83h15.38a11.83,11.83,0,0,1,11.84,11.83v40.23A11.83,11.83,0,0,1,620.29,161.17Z"/><path class="cls-2" d="M747.1,524.21A101.58,101.58,0,1,1,645.52,422.63,101.57,101.57,0,0,1,747.1,524.21Z"/><path class="cls-4" d="M718.57,524.21a73.05,73.05,0,1,1-73.05-73.05A73.06,73.06,0,0,1,718.57,524.21Z"/><path class="cls-2" d="M645.52,481.91a8.28,8.28,0,0,1-8.28-8.28V463.55a8.28,8.28,0,1,1,16.56,0v10.08A8.28,8.28,0,0,1,645.52,481.91Z"/><path class="cls-2" d="M645.52,593.15a8.28,8.28,0,0,1-8.28-8.28V574.79a8.28,8.28,0,0,1,16.56,0v10.08A8.28,8.28,0,0,1,645.52,593.15Z"/><path class="cls-2" d="M706.18,532.49H696.1a8.28,8.28,0,1,1,0-16.56h10.08a8.28,8.28,0,1,1,0,16.56Z"/><path class="cls-2" d="M663.77,532.49H645.52a8.28,8.28,0,0,1-8.28-8.28V507.44a8.28,8.28,0,1,1,16.56,0v8.49h10a8.28,8.28,0,0,1,0,16.56Z"/><path class="cls-2" d="M594.94,532.49H584.86a8.28,8.28,0,0,1,0-16.56h10.08a8.28,8.28,0,1,1,0,16.56Z"/></svg>