<svg id="_2490755a-457e-4afb-a65a-0ea5e4d54fde" data-name="2490755a-457e-4afb-a65a-0ea5e4d54fde" xmlns="http://www.w3.org/2000/svg" viewBox="0 0 945.48 723.06"><defs><style>.cls-1{fill:#333;}.cls-2{fill:#2e626a;}.cls-3{fill:#fe5e55;}</style></defs><path class="cls-1" d="M537.54,606c1-1.52.45-.62,0,0Z"/><path class="cls-1" d="M516.47,626.93c1.19-1,.56-.45,0,0Z"/><path class="cls-2" d="M179,428.91c.91-31.93,9.81-64.41,30.56-88.76,18.29-21.45,44.26-34.81,70.46-45.22,19.59-7.78,40.32-14.59,55.81-28.88,19.25-17.77,25.19-43.1,21.8-68.26-3.09-23-7.24-53.71,12-71.39C397.66,100.58,406.84,59,406.84,59c24.9,7.87,23.39,41.56,23.39,41.56L450.44,68c16.85,18,14.6,46,14.6,46a114.17,114.17,0,0,1,18,14.6c9,9,11.23,13.48,22.46,21.34s2.25,32.56,2.25,32.56C527.93,169.08,535.79,150,543.65,132S566.11,32.07,589.7,31,609.91,52.29,602.05,59s-16.85,80.86-21.34,107.81-66.26,97.7-66.26,97.7c6.74,37.06-4.49,83.1-24.7,114.55s-33.69,128-32.57,133.64S483,515,481.89,534.05,453.81,552,437,549.36s-15.72-22.05-15.72-22.05L422.37,415C407.77,465.55,337,489.13,337,489.13s11.23,24.71,29.2,30.32,46-4.49,40.62,16.85-59.71,10.11-59.71,10.11-106.45-7.72-148.66-65.34q1.49,6.76,3.52,13.38c23.36,76.05,98.26,136,173.82,154.43,28.07,6.86,57.65,8.8,85.9,2.7s55.07-20.59,73.52-42.83c16.44-19.81,25.29-44.57,28.63-69.88a212.67,212.67,0,0,0,1.28-39.32c-.21-3.87-3-32.05,10.23-20.62,3.32,2.86,4,7.67,4.34,12,3.8,47.72-7,98.56-40.33,134.44-34,36.59-89.84,48.43-137.94,43C292.37,656,190.26,564.78,179.78,453.07A195.6,195.6,0,0,1,179,428.91Z"/><path class="cls-3" d="M482.85,145.26s-11.25-14.7-33.52-11.67C449.33,133.59,458.44,152.65,482.85,145.26Z"/></svg>