<svg id="_2490755a-457e-4afb-a65a-0ea5e4d54fde" data-name="2490755a-457e-4afb-a65a-0ea5e4d54fde" xmlns="http://www.w3.org/2000/svg" viewBox="0 0 945.48 723.06"><defs><style>.cls-1{fill:#2e626a;}.cls-1,.cls-2{fill-rule:evenodd;}.cls-2{fill:#ff5f55;}</style></defs><path class="cls-1" d="M309.08,474.64c7.63,3.53,7.63,3.68,13.43,9.75l3,8.2-.42,8.77c-3.53,7.49-3.53,7.63-9.75,13.29l-8.06,3.11c-51.88,8-113.8,3.67-168.79-1.56-23.75-2.12-49.62-5.8-68,7.21C50.24,537.55,67.06,526,67.06,526c1.27,3.54-1.84-.7,2.69,3.68,17,16.82,44.24,23.18,67.57,29.83l3,4.24-4.24,2.54c-25.87-4.38-53.16-8.76-74.36-23.6-10.46-7.21-15.55-23.47,1-35.91,35.62-26.86,93.58-15,137.26-18,33.65-2.27,67.29-7.5,100.37-14.56,2.83-.43,5.8.28,8.77.42Z"/><path class="cls-1" d="M292.54,497.12S248.15,517.19,192,509.7c-53.58-7.21-141.51-4-124.83,16l3.25-2.26c18.38-13,44.25-9.33,68-7.21,54.85,5.23,116.77,9.61,168.36,1.56Z"/><path class="cls-1" d="M690.19,410.88a16.35,16.35,0,0,1,3.4,2.83c2.68,2.55,8,7.92,11.3,11.17,4.39,4.52,9.76,1.13,9.62-3.11s9.61,0,9.61,0-1,17.1,3.25,19.23,6.36-6.51,6.36-6.51.85,11.88,6.51,12.87,3.25-21.91,3.11-32.09-4.53-19.94-12.73-19.23-15.41-1-22.47-6.36-9.62-6.5-9.62-6.5l-12.86,9.61-3.25,12.86s5,3.4,7.77,5.23Z"/><path class="cls-1" d="M541.2,534h38.59s10.46-.14,14.84-3.11,27.28,1.56,31.67-2.26-8.77-14.7-27.29-13.85-93.16-4.24-93.16-4.24h-16L477,518Z"/><path class="cls-1" d="M862.09,299.77s12.87-6.92,3.25-19.22S843.43,260.9,830,254.82s-43.82-51-115.49-70.54c0,0-8.48-37-32.09-45s-38.45,16-38.45,16-19,2.4-29,19.37,3.25,25.58,3.25,25.58-5.09,7.78-41.7,3.25-72.24-14.84-122,6.37S359,285.49,345.41,351.09s-22.06,126.09-73.8,128.36c0,0-9.33,39.15,19.23,38.59s41.28-.57,57.82,6.36,18.38,10.18,38.45,3.25,28.13-12.86,54.57-9.61,56.54,9.47,80.29-9.61c23.75-19.23,31.67-43.54,57.82-38.6s49.62,48.77,51.31,54.57,5.37-3,9.62-16c4.24-13.15,19.93,3,15.12-9.62s-8.48-12-11.87-25.73c-3.54-13.71-.43-35.34,22.47-51.31s38.88-42,51.32-64.18,46.79-21.49,73.79-22.48,64.32-9.75,70.54-35.34Z"/><path class="cls-2" d="M647.08,155.3s19.08-4.38,29,9.75,9.61,12.73,9.61,12.73,20.36,8.19,25.59,6.5a6.36,6.36,0,0,1,3.25-.14c-.57-2.12-9.19-37.18-32.09-44.82-20.36-6.78-34.35,10-37.75,14.85Zm69.83,29.54c2.12,1,3.82,2.12,4.1,1.28-1.27-.43-2.69-.85-4.1-1.28Z"/><path class="cls-1" d="M863.79,278.57c-8.06,2.26-23.19,7.35-24.18,14.84-1.27,10.18,8.49,11.73,12.87,16a5.87,5.87,0,0,1,1.7,4.66,31.07,31.07,0,0,0,7.91-14.28s12.87-6.92,3.25-19.22c-.56-.71-1-1.28-1.55-2Z"/><path class="cls-1" d="M842.16,288.75c-.14,3,1.13,6.22,6.08,8.34,6.64,2.82,11,3,13.43,4.24a32.48,32.48,0,0,1-7.49,12.72,5.87,5.87,0,0,0-1.7-4.66c-4.38-4.25-14.14-5.8-12.87-16a9.6,9.6,0,0,1,2.55-4.66Z"/><path class="cls-1" d="M272.89,507.72c24,.71,61.63,1.13,83.26-3.39,33.79-6.79,146.17-30.11,186.6-59.24,28.7-20.63,51.46,17,62.2,40.58-7.63-7.78-16.26-14.14-25.16-15.84-26.15-4.94-34.07,19.37-57.82,38.6-23.75,19.08-53.72,12.72-80.29,9.61s-34.36,2.54-54.57,9.61-21.77,3.68-38.45-3.25-29.12-7.07-57.82-6.36c-9.75.14-15.13-4.38-17.95-10.32Z"/><path class="cls-1" d="M850.64,317.3c-15,5.23-56.26,17.53-92.31,11.59-45-7.49-51.6-11.31-74.36,19.09-20.35,27.28-44.1,73.51-39,101.21,3.11-9.33,9.61-19.22,21.48-27.42,22.9-16.12,38.88-42,51.32-64.18s46.79-21.49,73.79-22.48c19.51-.84,44.39-5.51,59.09-17.81Z"/><path class="cls-1" d="M631.1,521.15a44.51,44.51,0,0,1-3.25,16.11c-3.25,8.06-1.41,13.86,6.5,11.88a13.12,13.12,0,0,0,9.62-8.62s-5.23,6.22,12.72,8.62,15.27,6.36,22.48,4.1,18.52,5.09,22.47,0c4.1-5-6.22-12.3-16-12.72S664,532.46,659.94,518s-.14-10.46-6.36-19.23-16.12,6.36-16.12,6.36Z"/><path class="cls-1" d="M639.44,502.63c-.42,4-1.13,9.61-2.68,13.57-2.69,6.79-10.6,22.76-5.23,27.71a28.48,28.48,0,0,0,5.79,4.1,9.28,9.28,0,0,1-3,1.13c-7.91,2-9.75-3.82-6.5-11.88a44.51,44.51,0,0,0,3.25-16.11l6.36-16a20.71,20.71,0,0,1,2-2.54Z"/><path class="cls-1" d="M644,544.47c.14-4.66,2.4-13.43,2.4-13.43s2.69,13.58,11.17,14.14,13.43.28,23,3.11c6.93,2,15.83,2.69,21.77,4a2.47,2.47,0,0,1-.71,1c-3.95,5.09-15.12-2.12-22.47,0s-4.39-1.56-22.48-4.1c-8.06-1-11.45-3-12.72-4.67Z"/><path class="cls-1" d="M374.39,531.47a55.64,55.64,0,0,1,25.58,0c13.29,3.53,28.84,10.18,48.21,9,19.22-1.28,20.64-4.25,35.34,0s23,5.37,28.84,3.11,6.36-3.11,6.36-3.11,30.82,6.36,38.59,6.36,6.64-8.77,3.11-12.87-51.31-12.86-51.31-12.86l-28.84-6.36S436,512,429,511.54s-9.47-2.27-22.47,0c-13.15,2.26-19.37,3.25-19.37,3.25Z"/><path class="cls-1" d="M378.91,525.67c4,1.56,9.75,2.69,17.95,2,19.65-1.84,24.88,10.18,44.82,9.61s22.19-1.13,35.34,0,35.34,3.26,35.34,3.26l4.66,1.13c-1,.42-2.4,1.13-4.66,2-5.8,2.26-14.28,1.13-28.84-3.11s-16.12-1.28-35.34,0c-19.37,1.13-34.92-5.52-48.21-9a55.64,55.64,0,0,0-25.58,0Z"/><path class="cls-1" d="M528.9,542.49h0l-39.16-8.19s2.26-4.1,17.95-.29c11.88,3,41.28,7.92,54.85,10-.85,1.7-2.54,2.83-5.23,2.83-4.81,0-18.66-2.55-28.41-4.39Z"/><path class="cls-2" d="M659.94,246.76s19.65-15.55,22.48-33.64,1.41-51.74-22.48-54.57-34.21,4.52-41.7,16.12,2.26,18.8,6.36,25.58c4.24,6.93-12.3,43.26,35.34,46.51Z"/><path class="cls-2" d="M649.76,158c8.77,5.66,16.68,14.71,18,29.55,3,35.06-28.14,24.46-16.12,47.07a59.48,59.48,0,0,1,4.95,11.88,27.67,27.67,0,0,0,3.39.28s19.65-15.55,22.48-33.64,1.41-51.74-22.48-54.57a89.21,89.21,0,0,0-10.18-.57Z"/></svg>