<svg id="Calque_1" data-name="Calque 1" xmlns="http://www.w3.org/2000/svg" viewBox="0 0 93.79 50.46"><defs><style>.cls-1{fill:#e1dc4b;fill-rule:evenodd;}</style></defs><path class="cls-1" d="M29.37,38.61a3,3,0,0,1,1.33,1l.3.82,0,.86a2.77,2.77,0,0,1-1,1.32l-.8.31c-5.15.8-11.29.37-16.74-.15-2.36-.21-4.92-.58-6.75.71-2,1.4-.33.25-.33.25.12.35-.18-.07.26.37,1.69,1.67,4.39,2.3,6.71,3l.29.42-.42.25c-2.57-.43-5.27-.87-7.37-2.34a2.07,2.07,0,0,1,.09-3.56c3.54-2.67,9.29-1.49,13.62-1.78a71.45,71.45,0,0,0,10-1.45,5.12,5.12,0,0,1,.87,0Z"/><path class="cls-1" d="M27.73,40.84a20.07,20.07,0,0,1-10,1.25c-5.31-.71-14-.39-12.38,1.59l.32-.23c1.83-1.29,4.39-.92,6.75-.71,5.44.52,11.58.95,16.7.15Z"/><path class="cls-1" d="M67.17,32.29a1.88,1.88,0,0,1,.34.28c.27.25.8.79,1.12,1.11a.52.52,0,0,0,1-.31c0-.43,1,0,1,0s-.1,1.7.32,1.91.63-.65.63-.65.08,1.18.65,1.28.32-2.17.3-3.18-.44-2-1.26-1.91A3,3,0,0,1,69,30.19a5.51,5.51,0,0,0-1-.65l-1.28,1-.32,1.27.77.52Z"/><path class="cls-1" d="M52.39,44.5h3.83a3.61,3.61,0,0,0,1.47-.3c.45-.31,2.71.15,3.14-.23s-.86-1.46-2.7-1.37-9.24-.42-9.24-.42H47.3L46,42.92Z"/><path class="cls-1" d="M84.22,21.27a1.19,1.19,0,0,0,.32-1.91A8.6,8.6,0,0,0,81,16.81c-1.33-.6-4.35-5.06-11.46-7,0,0-.84-3.68-3.18-4.46s-3.81,1.58-3.81,1.58a4.25,4.25,0,0,0-2.88,1.92A1.78,1.78,0,0,0,60,11.4s-.51.77-4.14.32-7.17-1.47-12.1.63-9.48,7.5-10.82,14-2.19,12.51-7.32,12.73c0,0-.93,3.89,1.9,3.83s4.1-.06,5.74.63,1.82,1,3.81.32,2.79-1.27,5.41-.95,5.61.94,8-1,3.14-4.32,5.73-3.83,4.92,4.84,5.09,5.41.53-.29.95-1.58,2,.29,1.51-1-.85-1.19-1.18-2.55a4.79,4.79,0,0,1,2.23-5.09c2.27-1.6,3.85-4.16,5.09-6.36s4.64-2.14,7.32-2.23,6.37-1,7-3.51Z"/><path class="cls-1" d="M62.9,6.94a2.91,2.91,0,0,1,2.87,1c1,1.39,1,1.26,1,1.26a8,8,0,0,0,2.54.65.59.59,0,0,1,.32,0c0-.21-.91-3.69-3.18-4.44a3.37,3.37,0,0,0-3.74,1.47Zm6.92,2.93c.21.1.38.21.41.13l-.41-.13Z"/><path class="cls-1" d="M84.39,19.17c-.8.22-2.3.73-2.4,1.47-.12,1,.84,1.16,1.28,1.58a.61.61,0,0,1,.17.47,3,3,0,0,0,.78-1.42,1.19,1.19,0,0,0,.32-1.91l-.15-.19Z"/><path class="cls-1" d="M82.24,20.18a.84.84,0,0,0,.61.82c.66.28,1.09.3,1.33.42a3.32,3.32,0,0,1-.74,1.27.61.61,0,0,0-.17-.47c-.44-.42-1.4-.57-1.28-1.58a1,1,0,0,1,.25-.46Z"/><path class="cls-1" d="M25.78,41.9A43.08,43.08,0,0,0,34,41.56c3.35-.67,14.5-3,18.51-5.88,2.84-2,5.1,1.69,6.17,4a5.13,5.13,0,0,0-2.5-1.57c-2.59-.49-3.38,1.92-5.73,3.83s-5.33,1.26-8,1-3.4.25-5.41.95-2.16.37-3.81-.32-2.89-.7-5.74-.63a1.79,1.79,0,0,1-1.78-1Z"/><path class="cls-1" d="M83.09,23c-1.49.52-5.58,1.74-9.16,1.15-4.46-.74-5.12-1.12-7.37,1.89-2,2.71-4.38,7.29-3.87,10a5.32,5.32,0,0,1,2.13-2.72c2.27-1.6,3.85-4.16,5.09-6.36s4.64-2.14,7.32-2.23c1.93-.09,4.4-.55,5.86-1.77Z"/><path class="cls-1" d="M61.31,43.23a4.3,4.3,0,0,1-.32,1.6c-.32.8-.14,1.37.64,1.17a1.29,1.29,0,0,0,1-.85s-.52.62,1.26.85,1.51.63,2.23.41,1.84.51,2.23,0-.62-1.22-1.59-1.26a3,3,0,0,1-2.55-2.23c-.39-1.45,0-1-.63-1.91s-1.6.63-1.6.63Z"/><path class="cls-1" d="M62.14,41.39a5.48,5.48,0,0,1-.27,1.35c-.26.67-1,2.25-.52,2.74a2.64,2.64,0,0,0,.58.41.72.72,0,0,1-.3.11c-.78.2-1-.37-.64-1.17a4.3,4.3,0,0,0,.32-1.6l.63-1.59a2,2,0,0,1,.2-.25Z"/><path class="cls-1" d="M62.59,45.54a8,8,0,0,1,.24-1.33s.26,1.35,1.1,1.4a7.92,7.92,0,0,1,2.29.31c.69.2,1.57.27,2.16.39a.36.36,0,0,1-.07.1c-.39.51-1.5-.21-2.23,0s-.44-.15-2.23-.41c-.8-.09-1.14-.29-1.26-.46Z"/><path class="cls-1" d="M35.85,44.25a5.46,5.46,0,0,1,2.54,0,14,14,0,0,0,4.78.9c1.91-.13,2-.42,3.5,0a4.9,4.9,0,0,0,2.86.31c.58-.23.63-.31.63-.31s3.06.63,3.83.63.66-.87.31-1.28-5.09-1.27-5.09-1.27l-2.86-.63-5.09-.33a6.69,6.69,0,0,0-2.23,0l-1.92.33Z"/><path class="cls-1" d="M36.3,43.68a4,4,0,0,0,1.78.19c2-.18,2.47,1,4.44,1a22.37,22.37,0,0,1,3.51,0l3.5.32.47.11-.47.2a4.9,4.9,0,0,1-2.86-.31c-1.45-.42-1.59-.13-3.5,0a14,14,0,0,1-4.78-.9,5.46,5.46,0,0,0-2.54,0Z"/><path class="cls-1" d="M51.17,45.34h0l-3.88-.81s.22-.41,1.78,0c1.18.3,4.1.79,5.44,1a.53.53,0,0,1-.52.28,24.1,24.1,0,0,1-2.82-.44Z"/><path class="cls-1" d="M64.17,16a6.52,6.52,0,0,0,2.23-3.33c.28-1.8.14-5.14-2.23-5.42s-3.39.45-4.13,1.6.22,1.87.63,2.54-1.22,4.29,3.5,4.61Z"/><path class="cls-1" d="M63.16,7.21a3.7,3.7,0,0,1,1.78,2.93c.3,3.48-2.79,2.42-1.6,4.67a5.94,5.94,0,0,1,.5,1.17,1.84,1.84,0,0,0,.33,0,6.52,6.52,0,0,0,2.23-3.33c.28-1.8.14-5.14-2.23-5.42a9.09,9.09,0,0,0-1,0Z"/></svg>